<svg width="16" height="16" viewBox="0 0 16 16" fill="none" xmlns="http://www.w3.org/2000/svg">
<path d="M10.1879 12.6554C10.3434 12.6554 10.4759 12.6009 10.5854 12.492C10.6943 12.3831 10.7487 12.2506 10.7487 12.0945C10.7487 11.939 10.6943 11.8065 10.5854 11.697C10.4765 11.5881 10.344 11.5337 10.1879 11.5337C10.0323 11.5337 9.89981 11.5881 9.79036 11.697C9.68148 11.8065 9.62703 11.939 9.62703 12.0945C9.62703 12.2506 9.68148 12.3831 9.79036 12.492C9.89925 12.6009 10.0318 12.6554 10.1879 12.6554ZM11.9987 12.6554C12.1543 12.6554 12.2868 12.6009 12.3962 12.492C12.5051 12.3831 12.5595 12.2506 12.5595 12.0945C12.5595 11.939 12.5051 11.8065 12.3962 11.697C12.2873 11.5881 12.1548 11.5337 11.9987 11.5337C11.8431 11.5337 11.7106 11.5881 11.6012 11.697C11.4923 11.8065 11.4379 11.939 11.4379 12.0945C11.4379 12.2506 11.4923 12.3831 11.6012 12.492C11.7101 12.6009 11.8426 12.6554 11.9987 12.6554ZM13.8095 12.6554C13.9651 12.6554 14.0976 12.6009 14.207 12.492C14.3159 12.3831 14.3704 12.2506 14.3704 12.0945C14.3704 11.939 14.3159 11.8065 14.207 11.697C14.0981 11.5881 13.9656 11.5337 13.8095 11.5337C13.654 11.5337 13.5215 11.5881 13.412 11.697C13.3031 11.8065 13.2487 11.939 13.2487 12.0945C13.2487 12.2506 13.3031 12.3831 13.412 12.492C13.5209 12.6009 13.6534 12.6554 13.8095 12.6554ZM1.67786 13.6654C1.30564 13.6654 0.988142 13.5343 0.725365 13.272C0.463142 13.0098 0.332031 12.6923 0.332031 12.3195V1.67786C0.332031 1.30564 0.463142 0.988142 0.725365 0.725365C0.987587 0.463142 1.30509 0.332031 1.67786 0.332031H12.3195C12.6918 0.332031 13.0093 0.463142 13.272 0.725365C13.5343 0.987587 13.6654 1.30509 13.6654 1.67786V6.6362C13.5193 6.5862 13.3793 6.54536 13.2454 6.5137C13.112 6.48259 12.9743 6.45148 12.832 6.42036V1.6787C12.832 1.55036 12.7787 1.43259 12.672 1.32536C12.5648 1.2187 12.4473 1.16536 12.3195 1.16536H1.67786C1.55009 1.16536 1.43259 1.2187 1.32536 1.32536C1.2187 1.43259 1.16536 1.55009 1.16536 1.67786V12.3195C1.16536 12.4473 1.2187 12.5648 1.32536 12.672C1.43259 12.7787 1.55009 12.832 1.67786 12.832H6.39953C6.41953 12.9876 6.44536 13.1323 6.47703 13.2662C6.5087 13.3995 6.54953 13.5326 6.59953 13.6654H1.67786ZM1.16536 11.9987V12.832V1.16536V6.42036V6.35786V11.9987ZM3.2487 10.557H6.5487C6.57925 10.4143 6.62092 10.2762 6.6737 10.1429L6.84036 9.72286H3.2487V10.557ZM3.2487 7.41536H8.73203C9.00592 7.22314 9.27536 7.06009 9.54036 6.9262C9.80648 6.79286 10.0918 6.68842 10.3962 6.61286V6.58203H3.2487V7.41536ZM3.2487 4.2737H10.7487V3.44036H3.2487V4.2737ZM11.9987 15.4287C11.0704 15.4287 10.2826 15.1054 9.63536 14.4587C8.98814 13.812 8.66481 13.024 8.66536 12.0945C8.66536 11.1668 8.9887 10.3793 9.63536 9.73203C10.282 9.08481 11.0698 8.7612 11.9987 8.7612C12.927 8.7612 13.7148 9.08481 14.362 9.73203C15.0093 10.3793 15.3326 11.1668 15.332 12.0945C15.332 13.0234 15.0087 13.8112 14.362 14.4579C13.7143 15.1045 12.9265 15.4287 11.9987 15.4287Z" fill="#33357D"/>
</svg>
