<svg width="30" height="30" viewBox="0 0 30 30" fill="none" xmlns="http://www.w3.org/2000/svg">
<rect width="30" height="30" rx="6" fill="white"/>
<path d="M20 18.125C19.6875 18.125 19.375 18 19.125 17.75L17.25 15.875C17 15.625 16.875 15.3125 16.875 15C16.875 14.6875 17 14.375 17.25 14.125L19.125 12.25C19.375 12 19.6875 11.875 20 11.875C20.3125 11.875 20.625 12 20.875 12.25L22.75 14.125C23 14.375 23.125 14.6875 23.125 15C23.125 15.3125 23 15.625 22.75 15.875L20.875 17.75C20.625 18 20.3125 18.125 20 18.125ZM20 13.125L18.125 15L20 16.875L21.875 15L20 13.125ZM15 13.125C14.6875 13.125 14.375 13 14.125 12.75L12.25 10.875C12 10.625 11.875 10.3125 11.875 10C11.875 9.6875 12 9.375 12.25 9.125L14.125 7.25C14.375 7 14.6875 6.875 15 6.875C15.3125 6.875 15.625 7 15.875 7.25L17.75 9.125C18 9.375 18.125 9.6875 18.125 10C18.125 10.3125 18 10.625 17.75 10.875L15.875 12.75C15.625 13 15.3125 13.125 15 13.125ZM15 8.125L13.125 10L15 11.875L16.875 10L15 8.125ZM15 23.125C14.6875 23.125 14.375 23 14.125 22.75L12.25 20.875C12 20.625 11.875 20.3125 11.875 20C11.875 19.6875 12 19.375 12.25 19.125L14.125 17.25C14.375 17 14.6875 16.875 15 16.875C15.3125 16.875 15.625 17 15.875 17.25L17.75 19.125C18 19.375 18.125 19.6875 18.125 20C18.125 20.3125 18 20.625 17.75 20.875L15.875 22.75C15.625 23 15.3125 23.125 15 23.125ZM15 18.125L13.125 20L15 21.875L16.875 20L15 18.125ZM10 18.125C9.6875 18.125 9.375 18 9.125 17.75L7.25 15.875C7 15.625 6.875 15.3125 6.875 15C6.875 14.6875 7 14.375 7.25 14.125L9.125 12.25C9.375 12 9.6875 11.875 10 11.875C10.3125 11.875 10.625 12 10.875 12.25L12.75 14.125C13 14.375 13.125 14.6875 13.125 15C13.125 15.3125 13 15.625 12.75 15.875L10.875 17.75C10.625 18 10.3125 18.125 10 18.125ZM10 13.125L8.125 15L10 16.875L11.875 15L10 13.125Z" fill="#33357D"/>
</svg>
