<svg width="30" height="30" viewBox="0 0 30 30" fill="none" xmlns="http://www.w3.org/2000/svg">
<rect width="30" height="30" rx="6" fill="white"/>
<path d="M22.5013 21.3155V9.2638C22.5013 9.11436 22.4532 8.99158 22.3571 8.89547C22.261 8.79936 22.1382 8.7513 21.9888 8.7513H8.0138C7.86436 8.7513 7.74158 8.79936 7.64547 8.89547C7.54936 8.99158 7.5013 9.11436 7.5013 9.2638V15.418H6.66797V9.2638C6.66797 8.8938 6.79991 8.57714 7.0638 8.3138C7.32714 8.04991 7.6438 7.91797 8.0138 7.91797H21.9888C22.3588 7.91797 22.6755 8.04991 22.9388 8.3138C23.2027 8.57714 23.3346 8.8938 23.3346 9.2638V20.178C23.3346 20.4435 23.2569 20.6807 23.1013 20.8896C22.9457 21.0985 22.7457 21.241 22.5013 21.3155ZM12.5013 16.1563C11.8141 16.1563 11.2255 15.9113 10.7355 15.4213C10.2455 14.9313 10.0007 14.3427 10.0013 13.6555C10.0013 12.9677 10.246 12.3788 10.7355 11.8888C11.2249 11.3999 11.8135 11.1555 12.5013 11.1555C13.1891 11.1555 13.7777 11.3999 14.2671 11.8888C14.7566 12.3788 15.0013 12.9677 15.0013 13.6555C15.0013 14.3427 14.7566 14.931 14.2671 15.4205C13.7777 15.9099 13.1891 16.1557 12.5013 16.1563ZM12.5013 15.3221C12.9596 15.3221 13.3521 15.1588 13.6788 14.8321C14.0055 14.5055 14.1685 14.1132 14.168 13.6555C14.168 13.1971 14.0049 12.8046 13.6788 12.478C13.3527 12.1513 12.9602 11.9882 12.5013 11.9888C12.043 11.9888 11.6507 12.1519 11.3246 12.478C10.9985 12.8041 10.8352 13.1966 10.8346 13.6555C10.8346 14.1138 10.998 14.506 11.3246 14.8321C11.6513 15.1582 12.0435 15.3216 12.5013 15.3221ZM6.66797 22.1805V20.8096C6.66797 20.4657 6.76797 20.1441 6.96797 19.8446C7.16852 19.5446 7.43797 19.3119 7.7763 19.1463C8.56297 18.7691 9.34991 18.4863 10.1371 18.298C10.9249 18.1091 11.713 18.0146 12.5013 18.0146C13.2902 18.0146 14.0782 18.1091 14.8655 18.298C15.6527 18.4869 16.4394 18.7696 17.2255 19.1463C17.5644 19.3119 17.8338 19.5446 18.0338 19.8446C18.2344 20.1441 18.3346 20.4657 18.3346 20.8096V22.1813L6.66797 22.1805ZM7.5013 21.3471H17.5013V20.8088C17.5013 20.6244 17.4419 20.4507 17.323 20.288C17.2035 20.1257 17.0385 19.9885 16.828 19.8763C16.1424 19.5441 15.4352 19.2896 14.7063 19.113C13.9785 18.9357 13.2435 18.8471 12.5013 18.8471C11.7596 18.8471 11.0246 18.9357 10.2963 19.113C9.56741 19.2896 8.86019 19.5441 8.17464 19.8763C7.96352 19.9885 7.79852 20.1257 7.67964 20.288C7.56075 20.4507 7.5013 20.6246 7.5013 20.8096V21.3471Z" fill="#33357D"/>
</svg>
