<svg width="23" height="22" viewBox="0 0 23 22" fill="none" xmlns="http://www.w3.org/2000/svg">
<g clip-path="url(#clip0_72_22803)">
<path d="M11.1927 20.168C12.201 20.168 13.026 19.343 13.026 18.3346H9.35938C9.35938 19.343 10.1844 20.168 11.1927 20.168ZM16.6927 14.668V10.0846C16.6927 7.27047 15.1985 4.91464 12.5677 4.2913V3.66797C12.5677 2.90714 11.9535 2.29297 11.1927 2.29297C10.4319 2.29297 9.81771 2.90714 9.81771 3.66797V4.2913C7.19604 4.91464 5.69271 7.2613 5.69271 10.0846V14.668L3.85938 16.5013V17.418H18.526V16.5013L16.6927 14.668ZM14.8594 15.5846H7.52604V10.0846C7.52604 7.8113 8.91021 5.95964 11.1927 5.95964C13.4752 5.95964 14.8594 7.8113 14.8594 10.0846V15.5846Z" fill="#33357D"/>
</g>
<circle cx="14.9019" cy="4.2457" r="3.14414" fill="#FF4159"/>
<defs>
<clipPath id="clip0_72_22803">
<rect width="22" height="22" fill="white" transform="translate(0.191406)"/>
</clipPath>
</defs>
</svg>
