<svg width="30" height="30" viewBox="0 0 30 30" fill="none" xmlns="http://www.w3.org/2000/svg">
<rect width="30" height="30" rx="6" fill="white"/>
<path fill-rule="evenodd" clip-rule="evenodd" d="M14.9546 6.04297H15.048C16.5796 6.04297 17.793 6.04297 18.7421 6.17047C19.7188 6.30214 20.5096 6.5788 21.1338 7.20214C21.7571 7.8263 22.0338 8.61714 22.1655 9.5938C22.2513 10.2305 22.2788 10.9855 22.288 11.8763H22.5013C23.3063 11.8763 23.9596 12.5296 23.9596 13.3346V14.168C23.9596 14.6263 23.743 15.0596 23.3763 15.3346L22.2905 16.1488C22.2846 17.1755 22.2605 18.0321 22.1655 18.7421C22.0338 19.7188 21.7571 20.5096 21.1338 21.1338C20.9755 21.2921 20.8063 21.428 20.6263 21.5446V22.5013C20.6263 22.8881 20.4727 23.259 20.1992 23.5325C19.9257 23.806 19.5547 23.9596 19.168 23.9596H17.918C17.5312 23.9596 17.1603 23.806 16.8868 23.5325C16.6133 23.259 16.4596 22.8881 16.4596 22.5013V22.288C16.0221 22.293 15.553 22.293 15.048 22.293H14.9546C14.4496 22.293 13.9796 22.293 13.543 22.288V22.5013C13.543 22.8881 13.3893 23.259 13.1158 23.5325C12.8423 23.806 12.4714 23.9596 12.0846 23.9596H10.8346C10.4479 23.9596 10.0769 23.806 9.80344 23.5325C9.52995 23.259 9.3763 22.8881 9.3763 22.5013V21.5446C9.19319 21.4259 9.02309 21.2882 8.8688 21.1338C8.24547 20.5096 7.9688 19.7188 7.83714 18.7421C7.74214 18.0321 7.71797 17.1755 7.71214 16.1488L6.6263 15.3346C6.25964 15.0596 6.04297 14.6263 6.04297 14.168V13.3346C6.04297 12.5296 6.6963 11.8763 7.5013 11.8763H7.7138C7.7238 10.9855 7.7513 10.2305 7.83714 9.5938C7.9688 8.61714 8.24547 7.8263 8.8688 7.20214C9.49297 6.5788 10.2838 6.30214 11.2605 6.17047C12.2105 6.04297 13.423 6.04297 14.9546 6.04297ZM7.70964 13.1263H7.5013C7.44605 13.1263 7.39306 13.1483 7.35399 13.1873C7.31492 13.2264 7.29297 13.2794 7.29297 13.3346V14.168C7.29297 14.2003 7.3005 14.2322 7.31496 14.2611C7.32943 14.2901 7.35043 14.3152 7.3763 14.3346L7.70964 14.5846V13.288V13.1263ZM8.96464 16.4596C8.97297 17.3213 8.99964 18.008 9.0763 18.5763C9.1888 19.4138 9.40047 19.8971 9.75297 20.2496C10.1055 20.6021 10.5888 20.8138 11.4271 20.9263C12.2838 21.0413 13.4121 21.043 15.0013 21.043C16.5905 21.043 17.7196 21.0413 18.5763 20.9263C19.4138 20.8138 19.8971 20.6021 20.2496 20.2496C20.6021 19.8971 20.8138 19.4138 20.9263 18.5755C21.003 18.0088 21.0288 17.3213 21.038 16.4596H8.96464ZM21.043 15.2096H8.95964V13.3346C8.95964 11.7655 8.9613 10.6455 9.07214 9.79297H20.9305C21.0413 10.6455 21.043 11.7655 21.043 13.3346V15.0013V15.2096ZM22.293 14.5846L22.6263 14.3346C22.6522 14.3152 22.6732 14.2901 22.6876 14.2611C22.7021 14.2322 22.7096 14.2003 22.7096 14.168V13.3346C22.7096 13.2794 22.6877 13.2264 22.6486 13.1873C22.6095 13.1483 22.5566 13.1263 22.5013 13.1263H22.293V13.288V14.5846ZM20.5855 8.54297C20.4973 8.37461 20.3841 8.22063 20.2496 8.0863C19.8971 7.7338 19.4138 7.52214 18.5755 7.40964C17.7188 7.29464 16.5905 7.29297 15.0013 7.29297C13.4121 7.29297 12.2838 7.29464 11.4263 7.40964C10.5888 7.52214 10.1055 7.7338 9.75297 8.0863C9.61863 8.22071 9.5054 8.37467 9.41714 8.54297H20.5855ZM10.6263 22.0513V22.5013C10.6263 22.6163 10.7196 22.7096 10.8346 22.7096H12.0846C12.1399 22.7096 12.1929 22.6877 12.2319 22.6486C12.271 22.6095 12.293 22.5566 12.293 22.5013V22.2546C11.9477 22.2391 11.6033 22.2094 11.2605 22.1655C11.0474 22.1373 10.8358 22.0992 10.6263 22.0513ZM17.7096 22.2546V22.5013C17.7096 22.6163 17.803 22.7096 17.918 22.7096H19.168C19.2232 22.7096 19.2762 22.6877 19.3153 22.6486C19.3544 22.6095 19.3763 22.5566 19.3763 22.5013V22.0513C19.1669 22.0995 18.9552 22.1376 18.7421 22.1655C18.3993 22.2094 18.0549 22.2391 17.7096 22.2546ZM10.2096 18.3346C10.2096 18.1689 10.2755 18.0099 10.3927 17.8927C10.5099 17.7755 10.6689 17.7096 10.8346 17.7096H12.0846C12.2504 17.7096 12.4094 17.7755 12.5266 17.8927C12.6438 18.0099 12.7096 18.1689 12.7096 18.3346C12.7096 18.5004 12.6438 18.6594 12.5266 18.7766C12.4094 18.8938 12.2504 18.9596 12.0846 18.9596H10.8346C10.6689 18.9596 10.5099 18.8938 10.3927 18.7766C10.2755 18.6594 10.2096 18.5004 10.2096 18.3346ZM17.293 18.3346C17.293 18.1689 17.3588 18.0099 17.476 17.8927C17.5932 17.7755 17.7522 17.7096 17.918 17.7096H19.168C19.3337 17.7096 19.4927 17.7755 19.6099 17.8927C19.7271 18.0099 19.793 18.1689 19.793 18.3346C19.793 18.5004 19.7271 18.6594 19.6099 18.7766C19.4927 18.8938 19.3337 18.9596 19.168 18.9596H17.918C17.7522 18.9596 17.5932 18.8938 17.476 18.7766C17.3588 18.6594 17.293 18.5004 17.293 18.3346Z" fill="#33357D"/>
</svg>
