<svg width="25" height="24" viewBox="0 0 25 24" fill="none" xmlns="http://www.w3.org/2000/svg">
<path d="M19.0822 5.39015H18.1293V7.29593H15.2706V5.39015H9.55327V7.29593H6.6946V5.39015H5.74172C4.69258 5.39015 3.83594 6.24775 3.83594 7.29593V18.7306C3.83594 19.7788 4.69258 20.6364 5.74172 20.6364H19.0822C20.1303 20.6364 20.9879 19.7788 20.9879 18.7306V7.29593C20.9879 6.24775 20.1303 5.39015 19.0822 5.39015ZM19.0822 18.7306H5.74172V11.1075H19.0822V18.7306ZM9.07683 3.48438H7.17105V6.81949H9.07683V3.48438ZM17.6528 3.48438H15.747V6.81949H17.6528V3.48438Z" fill="#44566C"/>
<mask id="mask0_649_1550" style="mask-type:alpha" maskUnits="userSpaceOnUse" x="3" y="3" width="18" height="18">
<path d="M19.0822 5.39015H18.1293V7.29593H15.2706V5.39015H9.55327V7.29593H6.6946V5.39015H5.74172C4.69258 5.39015 3.83594 6.24775 3.83594 7.29593V18.7306C3.83594 19.7788 4.69258 20.6364 5.74172 20.6364H19.0822C20.1303 20.6364 20.9879 19.7788 20.9879 18.7306V7.29593C20.9879 6.24775 20.1303 5.39015 19.0822 5.39015ZM19.0822 18.7306H5.74172V11.1075H19.0822V18.7306ZM9.07683 3.48438H7.17105V6.81949H9.07683V3.48438ZM17.6528 3.48438H15.747V6.81949H17.6528V3.48438Z" fill="#CFCFD1"/>
</mask>
<g mask="url(#mask0_649_1550)">
<rect x="0.621094" y="0.265625" width="23.584" height="23.584" fill="#44566C"/>
</g>
</svg>
