<svg width="20" height="20" viewBox="0 0 20 20" fill="none" xmlns="http://www.w3.org/2000/svg">
<g clip-path="url(#clip0_72_22934)">
<path d="M13.5297 6.04734C13.2504 5.88359 12.9775 5.80078 12.7619 5.80078C12.5475 5.80078 12.3907 5.88359 12.3432 6.04734C12.2463 6.37516 12.6232 6.90641 13.1825 7.23422C13.4625 7.39859 13.735 7.48047 13.95 7.48047C14.1644 7.48047 14.3213 7.39859 14.37 7.23422C14.466 6.90641 14.0897 6.37516 13.5297 6.04734ZM9.10161 15.0439C8.90005 14.9717 8.61599 14.9573 8.29661 15.0177C7.65911 15.1398 7.12661 15.5148 7.10692 15.8558C7.09692 16.0261 7.21755 16.1564 7.42005 16.228C7.62224 16.3002 7.90661 16.3139 8.22505 16.2533C8.86286 16.132 9.39567 15.7573 9.41536 15.4155C9.42536 15.2452 9.30474 15.1152 9.10161 15.0439ZM12.1866 14.3498C11.9847 14.2783 11.6997 14.2633 11.3816 14.3242C10.7444 14.4458 10.2122 14.8198 10.1925 15.1617C10.1832 15.3323 10.3035 15.462 10.5057 15.5339C10.7079 15.6058 10.9925 15.6198 11.3107 15.5598C11.9491 15.438 12.48 15.0636 12.5004 14.722C12.5091 14.5514 12.3891 14.422 12.1866 14.3498ZM15.1441 13.7455C14.9425 13.6739 14.6572 13.6595 14.3385 13.7202C13.7019 13.8417 13.1691 14.2161 13.15 14.558C13.1407 14.7283 13.2607 14.8583 13.4632 14.9302C13.665 15.002 13.95 15.0161 14.2688 14.9555C14.9066 14.8339 15.4382 14.4595 15.4579 14.1183C15.4672 13.9473 15.3466 13.8177 15.1441 13.7455ZM6.67974 8.21141C6.51099 8.34391 6.34692 8.57703 6.22692 8.87891C5.9888 9.48266 6.02067 10.132 6.29786 10.3311C6.43724 10.4305 6.61161 10.3989 6.78036 10.2664C6.95005 10.1339 7.11411 9.90078 7.23349 9.59922C7.47161 8.99578 7.44005 8.34547 7.16255 8.14641C7.02349 8.04703 6.8488 8.07859 6.67974 8.21141ZM3.24224 7.16484C3.07255 7.29734 2.90849 7.52984 2.78911 7.83172C2.55036 8.43516 2.58192 9.08547 2.86067 9.28391C2.9988 9.38359 3.17317 9.35141 3.34286 9.21891C3.51161 9.08641 3.67567 8.85359 3.79505 8.55172C4.0338 7.94859 4.00192 7.29828 3.72411 7.09891C3.58536 6.99984 3.41099 7.03172 3.24224 7.16484Z" fill="#33357D"/>
<path d="M19.2787 11.1633L17.2303 4.98578C16.9209 4.05266 15.9478 3.07859 15.0141 2.76922L8.83594 0.720781C8.45031 0.592969 8.10375 0.593594 7.83687 0.719531C7.54812 0.797969 7.21812 0.922344 6.88 1.07984C6.41781 1.29516 5.84781 1.62234 5.60594 1.90703C5.57873 1.93036 5.55236 1.95465 5.52687 1.97984L1.38344 6.12422C0.739374 6.76797 0.452811 7.99297 0.731249 8.91328L2.53187 14.877C2.56469 14.9861 2.60531 15.0889 2.65281 15.183C2.79781 15.6242 3.39219 16.2427 3.57469 16.4252C3.75781 16.608 4.37719 17.2039 4.81844 17.3486C4.91219 17.3952 5.015 17.4358 5.12344 17.4686L11.0869 19.2692C11.3181 19.3395 11.5722 19.3748 11.8425 19.3748C12.6172 19.3748 13.4153 19.0773 13.8753 18.6173L18.0197 14.4727C18.0459 14.4464 18.0697 14.4202 18.0928 14.3936C18.3778 14.1508 18.705 13.5808 18.9197 13.1202C19.0781 12.7805 19.2025 12.4495 19.2809 12.1605C19.4072 11.892 19.4066 11.5483 19.2787 11.1633ZM3.59656 15.552C3.36937 15.2758 3.24906 15.0711 3.225 14.9861L3.20187 14.9286C3.16464 14.8562 3.1343 14.7804 3.11125 14.7023L1.31 8.73828C1.09781 8.03672 1.32719 7.03547 1.81094 6.55203L5.95531 2.40734C5.97656 2.38578 5.99906 2.36703 6.02062 2.34828L6.06062 2.30641C6.13125 2.21703 6.32281 2.07141 6.59781 1.90953C6.86 1.99234 7.08312 2.23984 7.20406 2.64172L9.00469 8.60578C9.24969 9.41609 8.99156 10.5305 8.42812 11.0939L4.28437 15.2383C4.05875 15.4636 3.81937 15.5614 3.59656 15.552ZM17.6925 13.9395L17.6497 13.9811C17.6312 14.0023 17.6131 14.0239 17.5916 14.0452L13.4478 18.1898C13.1009 18.5367 12.4556 18.7695 11.8428 18.7695C11.6463 18.7716 11.4503 18.7449 11.2616 18.6902L5.29812 16.8895C5.22006 16.8663 5.14432 16.8358 5.07187 16.7986L5.01406 16.7761C4.92937 16.7523 4.72469 16.6314 4.44844 16.4042C4.43875 16.1811 4.53594 15.942 4.76187 15.7161L8.90531 11.572C9.46906 11.0083 10.5828 10.7502 11.3934 10.9952L17.3569 12.7961C17.7594 12.9177 18.0069 13.1411 18.0894 13.4033C17.9281 13.6777 17.7819 13.8686 17.6925 13.9395ZM18.7281 11.9145L18.7044 11.977C18.675 12.0886 18.6347 12.2123 18.5881 12.3405C18.4203 12.3727 18.2141 12.3552 17.975 12.2758L11.7972 10.2273C10.9572 9.94922 10.0503 9.04234 9.77281 8.20266L7.72437 2.02484C7.64531 1.78578 7.6275 1.57984 7.65969 1.41172C7.78719 1.36578 7.91 1.32547 8.02125 1.29609L8.08469 1.27141C8.13875 1.24328 8.20844 1.22891 8.29187 1.22891C8.39562 1.22891 8.51469 1.25109 8.64625 1.29453L14.8241 3.34297C15.5703 3.59047 16.4091 4.42984 16.6562 5.17578L18.705 11.3533C18.7825 11.5889 18.7912 11.793 18.7281 11.9145Z" fill="#33357D"/>
</g>
<defs>
<clipPath id="clip0_72_22934">
<rect width="20" height="20" fill="white"/>
</clipPath>
</defs>
</svg>
