<svg width="20" height="17" viewBox="0 0 20 17" fill="none" xmlns="http://www.w3.org/2000/svg">
<path d="M6.50005 11.5664C6.42536 11.5664 6.35068 11.5773 6.27943 11.6005C5.87443 11.732 5.44849 11.8164 5.00005 11.8164C4.55161 11.8164 4.12568 11.732 3.72036 11.6005C3.64911 11.5773 3.57474 11.5664 3.50005 11.5664C1.56068 11.5664 -0.010262 13.1439 5.04837e-05 15.0858C0.00442548 15.9064 0.679113 16.5664 1.50005 16.5664H8.50005C9.32099 16.5664 9.99568 15.9064 10.0001 15.0858C10.0104 13.1439 8.43943 11.5664 6.50005 11.5664ZM5.00005 10.5664C6.65693 10.5664 8.00005 9.22328 8.00005 7.56641C8.00005 5.90953 6.65693 4.56641 5.00005 4.56641C3.34318 4.56641 2.00005 5.90953 2.00005 7.56641C2.00005 9.22328 3.34318 10.5664 5.00005 10.5664ZM18.5 0.566406L6.50005 0.566406C5.67286 0.566406 5.00005 1.26172 5.00005 2.11609V3.56641C5.73193 3.56641 6.40943 3.77828 7.00005 4.12266V2.56641L18 2.56641L18 11.5664H16V9.56641H12.0001V11.5664H9.61755C10.2144 12.088 10.6526 12.7767 10.8579 13.5664H18.5C19.3272 13.5664 20 12.8711 20 12.0167L20 2.11609C20 1.26172 19.3272 0.566406 18.5 0.566406Z" fill="#44566C"/>
</svg>
