<svg width="20" height="20" viewBox="0 0 20 20" fill="none" xmlns="http://www.w3.org/2000/svg">
<path d="M8.75 3.75C8.75 3.02065 8.46027 2.32118 7.94454 1.80546C7.42882 1.28973 6.72935 1 6 1C5.27065 1 4.57118 1.28973 4.05546 1.80546C3.53973 2.32118 3.25 3.02065 3.25 3.75C3.25 4.47935 3.53973 5.17882 4.05546 5.69454C4.57118 6.21027 5.27065 6.5 6 6.5C6.72935 6.5 7.42882 6.21027 7.94454 5.69454C8.46027 5.17882 8.75 4.47935 8.75 3.75ZM4.25 3.75C4.25 3.52019 4.29526 3.29262 4.38321 3.0803C4.47116 2.86798 4.60006 2.67507 4.76256 2.51256C4.92507 2.35006 5.11798 2.22116 5.3303 2.13321C5.54262 2.04527 5.77019 2 6 2C6.22981 2 6.45738 2.04527 6.6697 2.13321C6.88202 2.22116 7.07493 2.35006 7.23744 2.51256C7.39994 2.67507 7.52884 2.86798 7.61679 3.0803C7.70474 3.29262 7.75 3.52019 7.75 3.75C7.75 4.21413 7.56563 4.65925 7.23744 4.98744C6.90925 5.31563 6.46413 5.5 6 5.5C5.53587 5.5 5.09075 5.31563 4.76256 4.98744C4.43437 4.65925 4.25 4.21413 4.25 3.75ZM2.5 7.5H6.683C6.519 7.81 6.397 8.146 6.325 8.5H2.5C2.36739 8.5 2.24021 8.55268 2.14645 8.64645C2.05268 8.74021 2 8.86739 2 9V9.5C2 10.76 3.099 12.114 5.096 12.43C4.774 12.65 4.506 12.943 4.315 13.284C2.205 12.713 1 11.087 1 9.5V9C1 8.60218 1.15804 8.22064 1.43934 7.93934C1.72064 7.65804 2.10218 7.5 2.5 7.5ZM7.879 7.5C8.383 6.89 9.146 6.5 10 6.5C10.5989 6.49896 11.1816 6.69386 11.6594 7.05497C12.1371 7.41608 12.4836 7.92356 12.646 8.5C12.7907 9.0145 12.7826 9.56 12.6225 10.0699C12.4625 10.5799 12.1574 11.0322 11.7447 11.3717C11.3319 11.7112 10.8292 11.9232 10.298 11.9819C9.76673 12.0405 9.2299 11.9433 8.753 11.702C8.38581 11.5151 8.06531 11.2481 7.81518 10.9207C7.56504 10.5934 7.39166 10.2139 7.30785 9.81055C7.22405 9.40716 7.23195 8.99009 7.33098 8.59017C7.43001 8.19024 7.61664 7.81767 7.879 7.5ZM8.42 8.5C8.32151 8.70775 8.2649 8.93287 8.25341 9.1625C8.24192 9.39212 8.27577 9.62177 8.35303 9.83831C8.50906 10.2756 8.83243 10.6331 9.252 10.832C9.67157 11.0309 10.153 11.055 10.5903 10.899C11.0276 10.7429 11.3851 10.4196 11.584 10C11.7829 9.58029 11.807 9.09876 11.6508 8.66133C11.4947 8.22391 11.1712 7.86641 10.7515 7.6675C10.3318 7.46859 9.85026 7.44455 9.41283 7.60067C8.9754 7.7568 8.61791 8.0803 8.419 8.5M15.685 13.284C15.4945 12.9428 15.2271 12.6507 14.904 12.431C16.9 12.114 18 10.759 18 9.5V9C18 8.86739 17.9473 8.74021 17.8536 8.64645C17.7598 8.55268 17.6326 8.5 17.5 8.5H13.675C13.6044 8.15133 13.4841 7.81458 13.318 7.5H17.5C17.8978 7.5 18.2794 7.65804 18.5607 7.93934C18.842 8.22064 19 8.60218 19 9V9.5C19 11.087 17.794 12.712 15.685 13.284ZM14.487 13.371C14.2141 13.1314 13.8632 12.9995 13.5 13H6.5C6.30287 12.9995 6.10758 13.0379 5.92535 13.1131C5.74312 13.1883 5.57756 13.2988 5.43816 13.4382C5.29877 13.5776 5.1883 13.7431 5.11311 13.9254C5.03791 14.1076 4.99947 14.3029 5 14.5V15C5 16.971 6.86 19 10 19C13.14 19 15 16.971 15 15V14.5C15 14.05 14.802 13.646 14.487 13.37M6 14.5C6 14.3674 6.05268 14.2402 6.14645 14.1464C6.24021 14.0527 6.36739 14 6.5 14H13.5C13.6326 14 13.7598 14.0527 13.8536 14.1464C13.9473 14.2402 14 14.3674 14 14.5V15C14 16.438 12.568 18 10 18C7.432 18 6 16.438 6 15V14.5ZM14 1C14.7293 1 15.4288 1.28973 15.9445 1.80546C16.4603 2.32118 16.75 3.02065 16.75 3.75C16.75 4.47935 16.4603 5.17882 15.9445 5.69454C15.4288 6.21027 14.7293 6.5 14 6.5C13.2707 6.5 12.5712 6.21027 12.0555 5.69454C11.5397 5.17882 11.25 4.47935 11.25 3.75C11.25 3.02065 11.5397 2.32118 12.0555 1.80546C12.5712 1.28973 13.2707 1 14 1ZM14 2C13.5359 2 13.0908 2.18437 12.7626 2.51256C12.4344 2.84075 12.25 3.28587 12.25 3.75C12.25 4.21413 12.4344 4.65925 12.7626 4.98744C13.0908 5.31563 13.5359 5.5 14 5.5C14.4641 5.5 14.9092 5.31563 15.2374 4.98744C15.5656 4.65925 15.75 4.21413 15.75 3.75C15.75 3.28587 15.5656 2.84075 15.2374 2.51256C14.9092 2.18437 14.4641 2 14 2Z" fill="#33357D"/>
</svg>
