<svg width="18" height="16" viewBox="0 0 18 16" fill="none" xmlns="http://www.w3.org/2000/svg">
<path d="M1.11667 3.10594H16.6429C16.9096 3.10594 17.125 3.32135 17.125 3.58844V14.7493C17.125 15.0159 16.91 15.2314 16.6429 15.2314H1.35708C1.29388 15.2315 1.23128 15.2191 1.17285 15.195C1.11442 15.171 1.06131 15.1356 1.01654 15.091C0.971778 15.0464 0.936238 14.9934 0.911952 14.935C0.887666 14.8767 0.875109 14.8141 0.875 14.7509V3.54552C0.875 3.03385 1.6525 2.76094 2.2625 2.65719L13.1917 0.79677C14.245 0.617603 15.1392 1.3426 15.4167 2.37469L15.6042 3.07302" stroke="#33357D" stroke-width="0.416667" stroke-linecap="round" stroke-linejoin="round"/>
</svg>
