<svg width="18" height="18" viewBox="0 0 18 18" fill="none" xmlns="http://www.w3.org/2000/svg">
<path d="M0.144531 2.8231C0.144531 2.1127 0.426737 1.4314 0.929067 0.929067C1.4314 0.426737 2.1127 0.144531 2.8231 0.144531H13.1802C13.8906 0.144531 14.572 0.426737 15.0743 0.929067C15.5766 1.4314 15.8588 2.1127 15.8588 2.8231V8.35882C15.5272 8.10938 15.1676 7.89939 14.7874 7.7331V2.8231C14.7874 2.39686 14.6181 1.98808 14.3167 1.68668C14.0153 1.38528 13.6065 1.21596 13.1802 1.21596H2.8231C2.39686 1.21596 1.98808 1.38528 1.68668 1.68668C1.38528 1.98808 1.21596 2.39686 1.21596 2.8231V13.1802C1.21596 13.6065 1.38528 14.0153 1.68668 14.3167C1.98808 14.6181 2.39686 14.7874 2.8231 14.7874H7.7331C7.90024 15.1695 8.11096 15.5288 8.3581 15.8588H2.8231C2.1127 15.8588 1.4314 15.5766 0.929067 15.0743C0.426737 14.572 0.144531 13.8906 0.144531 13.1802V2.8231ZM13.1802 7.28739C13.3223 7.28739 13.4586 7.23095 13.5591 7.13048C13.6595 7.03001 13.716 6.89375 13.716 6.75167C13.716 6.60959 13.6595 6.47333 13.5591 6.37287C13.4586 6.2724 13.3223 6.21596 13.1802 6.21596H7.8231C7.68102 6.21596 7.54476 6.2724 7.4443 6.37287C7.34383 6.47333 7.28739 6.60959 7.28739 6.75167C7.28739 6.89375 7.34383 7.03001 7.4443 7.13048C7.54476 7.23095 7.68102 7.28739 7.8231 7.28739H13.1802ZM2.28739 3.18025C2.28739 3.03817 2.34383 2.9019 2.4443 2.80144C2.54476 2.70097 2.68102 2.64453 2.8231 2.64453H13.1802C13.3223 2.64453 13.4586 2.70097 13.5591 2.80144C13.6595 2.9019 13.716 3.03817 13.716 3.18025C13.716 3.32233 13.6595 3.45859 13.5591 3.55905C13.4586 3.65952 13.3223 3.71596 13.1802 3.71596H2.8231C2.68102 3.71596 2.54476 3.65952 2.4443 3.55905C2.34383 3.45859 2.28739 3.32233 2.28739 3.18025ZM4.0731 5.14453C3.5995 5.14453 3.1453 5.33267 2.81041 5.66755C2.47553 6.00244 2.28739 6.45664 2.28739 6.93024C2.28739 7.40385 2.47553 7.85805 2.81041 8.19294C3.1453 8.52782 3.5995 8.71596 4.0731 8.71596C4.5467 8.71596 5.00091 8.52782 5.33579 8.19294C5.67068 7.85805 5.85882 7.40385 5.85882 6.93024C5.85882 6.45664 5.67068 6.00244 5.33579 5.66755C5.00091 5.33267 4.5467 5.14453 4.0731 5.14453ZM3.35882 6.93024C3.35882 6.7408 3.43407 6.55912 3.56803 6.42517C3.70198 6.29121 3.88366 6.21596 4.0731 6.21596C4.26254 6.21596 4.44422 6.29121 4.57818 6.42517C4.71213 6.55912 4.78739 6.7408 4.78739 6.93024C4.78739 7.11969 4.71213 7.30137 4.57818 7.43532C4.44422 7.56928 4.26254 7.64453 4.0731 7.64453C3.88366 7.64453 3.70198 7.56928 3.56803 7.43532C3.43407 7.30137 3.35882 7.11969 3.35882 6.93024ZM2.28739 11.9302C2.28739 11.4566 2.47553 11.0024 2.81041 10.6676C3.1453 10.3327 3.5995 10.1445 4.0731 10.1445C4.5467 10.1445 5.00091 10.3327 5.33579 10.6676C5.67068 11.0024 5.85882 11.4566 5.85882 11.9302C5.85882 12.4038 5.67068 12.858 5.33579 13.1929C5.00091 13.5278 4.5467 13.716 4.0731 13.716C3.5995 13.716 3.1453 13.5278 2.81041 13.1929C2.47553 12.858 2.28739 12.4038 2.28739 11.9302ZM4.0731 11.216C3.88366 11.216 3.70198 11.2912 3.56803 11.4252C3.43407 11.5591 3.35882 11.7408 3.35882 11.9302C3.35882 12.1197 3.43407 12.3014 3.56803 12.4353C3.70198 12.5693 3.88366 12.6445 4.0731 12.6445C4.26254 12.6445 4.44422 12.5693 4.57818 12.4353C4.71213 12.3014 4.78739 12.1197 4.78739 11.9302C4.78739 11.7408 4.71213 11.5591 4.57818 11.4252C4.44422 11.2912 4.26254 11.216 4.0731 11.216ZM17.2874 12.6445C17.2874 13.8759 16.7982 15.0568 15.9275 15.9275C15.0568 16.7982 13.8759 17.2874 12.6445 17.2874C11.4132 17.2874 10.2322 16.7982 9.36154 15.9275C8.49083 15.0568 8.00167 13.8759 8.00167 12.6445C8.00167 11.4132 8.49083 10.2322 9.36154 9.36154C10.2322 8.49083 11.4132 8.00167 12.6445 8.00167C13.8759 8.00167 15.0568 8.49083 15.9275 9.36154C16.7982 10.2322 17.2874 11.4132 17.2874 12.6445ZM13.0017 9.78739C13.0017 9.69267 12.964 9.60183 12.8971 9.53485C12.8301 9.46787 12.7393 9.43025 12.6445 9.43025C12.5498 9.43025 12.459 9.46787 12.392 9.53485C12.325 9.60183 12.2874 9.69267 12.2874 9.78739V12.2874H9.78739C9.69267 12.2874 9.60183 12.325 9.53485 12.392C9.46787 12.459 9.43025 12.5498 9.43025 12.6445C9.43025 12.7393 9.46787 12.8301 9.53485 12.8971C9.60183 12.964 9.69267 13.0017 9.78739 13.0017H12.2874V15.5017C12.2874 15.5964 12.325 15.6872 12.392 15.7542C12.459 15.8212 12.5498 15.8588 12.6445 15.8588C12.7393 15.8588 12.8301 15.8212 12.8971 15.7542C12.964 15.6872 13.0017 15.5964 13.0017 15.5017V13.0017H15.5017C15.5964 13.0017 15.6872 12.964 15.7542 12.8971C15.8212 12.8301 15.8588 12.7393 15.8588 12.6445C15.8588 12.5498 15.8212 12.459 15.7542 12.392C15.6872 12.325 15.5964 12.2874 15.5017 12.2874H13.0017V9.78739Z" fill="#33357D"/>
</svg>
