<svg width="26" height="25" viewBox="0 0 26 25" fill="none" xmlns="http://www.w3.org/2000/svg">
<rect x="0.0742188" width="25" height="25" rx="12.5" fill="#0081FF"/>
<path d="M12.8621 11.3554C12.6612 10.9327 12.3702 10.607 11.9891 10.3784C11.608 10.1428 11.1646 10.025 10.6588 10.025C10.153 10.025 9.69565 10.1428 9.28685 10.3784C8.88498 10.607 8.56625 10.9396 8.33067 11.3761C8.10202 11.8057 7.9877 12.3046 7.9877 12.8728C7.9877 13.4409 8.10202 13.9398 8.33067 14.3694C8.56625 14.799 8.88498 15.1316 9.28685 15.3671C9.69565 15.5958 10.153 15.7101 10.6588 15.7101C11.3655 15.7101 11.9475 15.4988 12.4048 15.0761C12.8621 14.6535 13.1289 14.0818 13.2051 13.3612H10.3158V12.5921H14.2132V13.3197C14.1578 13.9156 13.9707 14.4629 13.652 14.9618C13.3333 15.4537 12.9141 15.8452 12.3944 16.1362C11.8748 16.4203 11.2962 16.5624 10.6588 16.5624C9.98666 16.5624 9.37346 16.4065 8.81915 16.0947C8.26485 15.7759 7.82487 15.336 7.49922 14.7747C7.18049 14.2135 7.02113 13.5795 7.02113 12.8728C7.02113 12.166 7.18049 11.532 7.49922 10.9708C7.82487 10.4026 8.26485 9.96266 8.81915 9.65087C9.37346 9.33214 9.98666 9.17278 10.6588 9.17278C11.4279 9.17278 12.1069 9.36332 12.6958 9.74441C13.2917 10.1255 13.7248 10.6625 13.995 11.3554H12.8621ZM15.0584 9.84834V8.9857H17.0123V16.5H16.0562V9.84834H15.0584Z" fill="white"/>
</svg>
