<svg width="26" height="25" viewBox="0 0 26 25" fill="none" xmlns="http://www.w3.org/2000/svg">
<rect x="0.0742188" width="25" height="25" rx="12.5" fill="#008124"/>
<path d="M11.3621 11.3554C11.1612 10.9327 10.8702 10.607 10.4891 10.3784C10.108 10.1428 9.66456 10.025 9.15875 10.025C8.65295 10.025 8.19565 10.1428 7.78685 10.3784C7.38498 10.607 7.06625 10.9396 6.83067 11.3761C6.60202 11.8057 6.4877 12.3046 6.4877 12.8728C6.4877 13.4409 6.60202 13.9398 6.83067 14.3694C7.06625 14.799 7.38498 15.1316 7.78685 15.3671C8.19565 15.5958 8.65295 15.7101 9.15875 15.7101C9.86549 15.7101 10.4475 15.4988 10.9048 15.0761C11.3621 14.6535 11.6289 14.0818 11.7051 13.3612H8.81578V12.5921H12.7132V13.3197C12.6578 13.9156 12.4707 14.4629 12.152 14.9618C11.8333 15.4537 11.4141 15.8452 10.8944 16.1362C10.3748 16.4203 9.79621 16.5624 9.15875 16.5624C8.48666 16.5624 7.87346 16.4065 7.31915 16.0947C6.76485 15.7759 6.32487 15.336 5.99922 14.7747C5.68049 14.2135 5.52113 13.5795 5.52113 12.8728C5.52113 12.166 5.68049 11.532 5.99922 10.9708C6.32487 10.4026 6.76485 9.96266 7.31915 9.65087C7.87346 9.33214 8.48666 9.17278 9.15875 9.17278C9.92785 9.17278 10.6069 9.36332 11.1958 9.74441C11.7917 10.1255 12.2248 10.6625 12.495 11.3554H11.3621ZM13.6935 15.7413C14.5735 15.0346 15.2629 14.456 15.7618 14.0056C16.2607 13.5483 16.6798 13.0737 17.0194 12.5818C17.3658 12.0829 17.539 11.5944 17.539 11.1163C17.539 10.6659 17.4282 10.3126 17.2064 10.0562C16.9916 9.79291 16.6417 9.66126 16.1567 9.66126C15.6856 9.66126 15.3183 9.81023 15.055 10.1082C14.7987 10.3992 14.6601 10.7907 14.6393 11.2826H13.7247C13.7524 10.5066 13.988 9.90723 14.4314 9.48458C14.8749 9.06192 15.4465 8.85059 16.1463 8.85059C16.86 8.85059 17.4247 9.04806 17.8404 9.443C18.2631 9.83795 18.4744 10.3819 18.4744 11.0747C18.4744 11.6498 18.3012 12.2111 17.9547 12.7584C17.6152 13.2989 17.2272 13.777 16.7907 14.1927C16.3542 14.6015 15.7964 15.0796 15.1174 15.627H18.6927V16.4169H13.6935V15.7413Z" fill="white"/>
</svg>
