<svg width="32" height="33" viewBox="0 0 32 33" fill="none" xmlns="http://www.w3.org/2000/svg">
<path d="M10 18.2734H18V20.2734H10V18.2734ZM10 13.2734H22V15.2734H10V13.2734ZM10 23.2734H15V25.2734H10V23.2734Z" fill="white"/>
<path d="M25 5.27344H22V4.27344C22 3.743 21.7893 3.2343 21.4142 2.85922C21.0391 2.48415 20.5304 2.27344 20 2.27344H12C11.4696 2.27344 10.9609 2.48415 10.5858 2.85922C10.2107 3.2343 10 3.743 10 4.27344V5.27344H7C6.46957 5.27344 5.96086 5.48415 5.58579 5.85922C5.21071 6.2343 5 6.743 5 7.27344V28.2734C5 28.8039 5.21071 29.3126 5.58579 29.6877C5.96086 30.0627 6.46957 30.2734 7 30.2734H25C25.5304 30.2734 26.0391 30.0627 26.4142 29.6877C26.7893 29.3126 27 28.8039 27 28.2734V7.27344C27 6.743 26.7893 6.2343 26.4142 5.85922C26.0391 5.48415 25.5304 5.27344 25 5.27344ZM12 4.27344H20V8.27344H12V4.27344ZM25 28.2734H7V7.27344H10V10.2734H22V7.27344H25V28.2734Z" fill="white"/>
</svg>
