<svg width="20" height="20" viewBox="0 0 20 20" fill="none" xmlns="http://www.w3.org/2000/svg">
<path d="M16.4596 12.8612V2.70833C16.4596 2.48732 16.3718 2.27536 16.2156 2.11908C16.0593 1.9628 15.8473 1.875 15.6263 1.875H4.3763C4.15529 1.875 3.94333 1.9628 3.78705 2.11908C3.63077 2.27536 3.54297 2.48732 3.54297 2.70833V17.2917C3.54297 17.5127 3.63077 17.7246 3.78705 17.8809C3.94333 18.0372 4.15529 18.125 4.3763 18.125H15.6263C15.8473 18.125 16.0593 18.0372 16.2156 17.8809C16.3718 17.7246 16.4596 17.5127 16.4596 17.2917V16.6796" stroke="#33357D" stroke-width="0.416667" stroke-linecap="round" stroke-linejoin="round"/>
<path d="M15.4738 15.6917L8.8713 9.07292V7.1875M15.4738 15.6917L17.3784 13.7825M15.4738 15.6917L16.5617 16.7817C16.6242 16.8442 16.6984 16.8938 16.78 16.9277C16.8616 16.9615 16.9492 16.9789 17.0376 16.9789C17.1259 16.9789 17.2135 16.9615 17.2951 16.9277C17.3768 16.8938 17.4509 16.8442 17.5134 16.7817L18.4659 15.8271C18.5922 15.7003 18.6631 15.5287 18.6631 15.3498C18.6631 15.1709 18.5922 14.9992 18.4659 14.8725L17.3784 13.7825M8.8713 7.1875H10.8013L17.3784 13.7825M8.8713 7.1875H5.41797M5.41797 4.375H14.5846M13.6063 10H14.5846M5.41797 10H9.7963M5.41797 12.8125H12.4967M5.41797 15.625H14.5846" stroke="#33357D" stroke-width="0.416667" stroke-linecap="round" stroke-linejoin="round"/>
</svg>
