<svg width="22" height="14" viewBox="0 0 22 14" fill="none" xmlns="http://www.w3.org/2000/svg">
<path d="M10.8214 0.925781L10.6062 0.991094L2.01247 3.87034L0.0585937 4.51453L1.19641 4.87891L1.19641 10.8945C0.785969 11.1331 0.508906 11.5683 0.508906 12.077C0.508906 12.4417 0.653772 12.7914 0.911634 13.0493C1.1695 13.3072 1.51923 13.452 1.88391 13.452C2.24858 13.452 2.59832 13.3072 2.85618 13.0493C3.11404 12.7914 3.25891 12.4417 3.25891 12.077C3.25891 11.5683 2.98184 11.1331 2.57141 10.8945L2.57141 5.35328L3.94641 5.80359L3.94641 9.32703C3.94641 9.89078 4.29016 10.3583 4.69853 10.6814C5.10691 11.0025 5.61428 11.2293 6.22341 11.4328C7.44303 11.8385 9.05041 12.077 10.8214 12.077C12.5924 12.077 14.1998 11.8392 15.4194 11.4322C16.0285 11.2293 16.5359 11.0025 16.9443 10.6807C17.3527 10.3583 17.6964 9.89078 17.6964 9.32703V5.80359L19.6303 5.15872L21.5842 4.51453L19.6297 3.86966L11.0359 0.991094L10.8214 0.925781ZM10.8214 2.36609L17.2667 4.51453L10.8214 6.66297L4.37609 4.51453L10.8214 2.36609ZM5.32141 6.27659L10.6069 8.03797L10.8214 8.10259L11.0366 8.03728L16.3214 6.27591V9.32703C16.3214 9.33391 16.3242 9.41366 16.1062 9.58484C15.889 9.75672 15.4992 9.97328 14.989 10.1438C13.9702 10.4827 12.468 10.702 10.8214 10.702C9.17484 10.702 7.67266 10.4834 6.65309 10.1431C6.14434 9.97328 5.75384 9.75603 5.53659 9.58484C5.31797 9.41297 5.32141 9.33391 5.32141 9.32703L5.32141 6.27591V6.27659Z" fill="#666666"/>
</svg>
