<svg width="26" height="25" viewBox="0 0 26 25" fill="none" xmlns="http://www.w3.org/2000/svg">
<rect x="0.0742188" width="25" height="25" rx="12.5" fill="#FFC700"/>
<path d="M11.0225 9.25592V14.6084C11.0225 15.2043 10.8389 15.6824 10.4717 16.0427C10.1044 16.3961 9.61943 16.5728 9.01663 16.5728C8.40689 16.5728 7.91841 16.3926 7.55118 16.0323C7.18395 15.6651 7.00034 15.1662 7.00034 14.5357H7.94612C7.95305 14.8891 8.04313 15.1766 8.21635 15.3983C8.3965 15.62 8.66326 15.7309 9.01663 15.7309C9.37 15.7309 9.63329 15.627 9.80651 15.4191C9.97973 15.2043 10.0663 14.9341 10.0663 14.6084V9.25592H11.0225ZM16.8144 16.5L13.8315 13.195V16.5H12.8857V9.25592H13.8315V12.6129L16.8248 9.25592H18.02L14.7357 12.8832L18.0512 16.5H16.8144Z" fill="white"/>
</svg>
