<svg width="25" height="24" viewBox="0 0 25 24" fill="none" xmlns="http://www.w3.org/2000/svg">
<g clip-path="url(#clip0_72_22798)">
<path d="M19.1914 3C19.9566 2.99996 20.6929 3.29233 21.2497 3.81728C21.8064 4.34224 22.1415 5.06011 22.1864 5.824L22.1914 6V16C22.1914 16.7652 21.8991 17.5015 21.3741 18.0583C20.8492 18.615 20.1313 18.9501 19.3674 18.995L19.1914 19H15.4944L12.8844 20.74C12.7003 20.8626 12.4869 20.9342 12.266 20.9473C12.0452 20.9605 11.8248 20.9149 11.6274 20.815L11.4974 20.74L8.88941 19H5.19141C4.4262 19 3.68989 18.7077 3.13315 18.1827C2.5764 17.6578 2.2413 16.9399 2.19641 16.176L2.19141 16V6C2.19136 5.23479 2.48373 4.49849 3.00869 3.94174C3.53365 3.38499 4.25151 3.04989 5.01541 3.005L5.19141 3H19.1914ZM19.1914 5H5.19141C4.94647 5.00003 4.71007 5.08996 4.52703 5.25272C4.344 5.41547 4.22706 5.63975 4.19841 5.883L4.19141 6V16C4.19144 16.2449 4.28136 16.4813 4.44412 16.6644C4.60688 16.8474 4.83116 16.9643 5.07441 16.993L5.19141 17H8.88841C9.22584 16.9999 9.55781 17.0852 9.85341 17.248L9.99841 17.336L12.1914 18.798L14.3844 17.336C14.6653 17.1487 14.989 17.0355 15.3254 17.007L15.4944 17H19.1914C19.4363 17 19.6727 16.91 19.8558 16.7473C20.0388 16.5845 20.1557 16.3603 20.1844 16.117L20.1914 16V6C20.1914 5.75507 20.1014 5.51866 19.9387 5.33563C19.7759 5.15259 19.5517 5.03566 19.3084 5.007L19.1914 5ZM8.69141 10C9.08923 10 9.47076 10.158 9.75207 10.4393C10.0334 10.7206 10.1914 11.1022 10.1914 11.5C10.1914 11.8978 10.0334 12.2794 9.75207 12.5607C9.47076 12.842 9.08923 13 8.69141 13C8.29358 13 7.91205 12.842 7.63075 12.5607C7.34944 12.2794 7.19141 11.8978 7.19141 11.5C7.19141 11.1022 7.34944 10.7206 7.63075 10.4393C7.91205 10.158 8.29358 10 8.69141 10ZM15.6914 10C16.0892 10 16.4708 10.158 16.7521 10.4393C17.0334 10.7206 17.1914 11.1022 17.1914 11.5C17.1914 11.8978 17.0334 12.2794 16.7521 12.5607C16.4708 12.842 16.0892 13 15.6914 13C15.2936 13 14.9121 12.842 14.6307 12.5607C14.3494 12.2794 14.1914 11.8978 14.1914 11.5C14.1914 11.1022 14.3494 10.7206 14.6307 10.4393C14.9121 10.158 15.2936 10 15.6914 10Z" fill="#33357D"/>
<circle cx="20.5614" cy="2.85831" r="2.85831" fill="#FF4159"/>
</g>
<defs>
<clipPath id="clip0_72_22798">
<rect width="24" height="24" fill="white" transform="translate(0.191406)"/>
</clipPath>
</defs>
</svg>
