<svg width="20" height="20" viewBox="0 0 20 20" fill="none" xmlns="http://www.w3.org/2000/svg">
<path d="M1.25 2.5V6.25H20V7.5H1.25V18.75H0V1.25H20V2.5H1.25ZM2.5 8.75H3.75V10H2.5V8.75ZM5 8.75H6.25V10H5V8.75ZM7.5 8.75H8.75V10H7.5V8.75ZM10 8.75H11.25V10H10V8.75ZM12.5 8.75H13.75V10H12.5V8.75ZM15 8.75H16.25V10H15V8.75ZM17.5 8.75H18.75V10H17.5V8.75ZM2.5 13.75H3.75V15H2.5V13.75ZM5 13.75H6.25V15H5V13.75ZM7.5 13.75H8.75V15H7.5V13.75ZM10 13.75H11.25V15H10V13.75ZM12.5 13.75H13.75V15H12.5V13.75ZM15 13.75H16.25V15H15V13.75ZM17.5 13.75H18.75V15H17.5V13.75ZM2.5 11.25H3.75V12.5H2.5V11.25ZM5 11.25H6.25V12.5H5V11.25ZM7.5 11.25H8.75V12.5H7.5V11.25ZM10 11.25H11.25V12.5H10V11.25ZM12.5 11.25H13.75V12.5H12.5V11.25ZM15 11.25H16.25V12.5H15V11.25ZM17.5 11.25H18.75V12.5H17.5V11.25ZM2.5 16.25H3.75V17.5H2.5V16.25ZM5 16.25H6.25V17.5H5V16.25ZM7.5 16.25H8.75V17.5H7.5V16.25ZM10 16.25H11.25V17.5H10V16.25ZM12.5 16.25H13.75V17.5H12.5V16.25Z" fill="#33357D"/>
</svg>
