<svg width="30" height="30" viewBox="0 0 30 30" fill="none" xmlns="http://www.w3.org/2000/svg">
<rect width="30" height="30" rx="6" fill="#33357D"/>
<path d="M14.9987 16.6654V23.332H8.33203C8.33203 21.5639 9.03441 19.8682 10.2847 18.618C11.5349 17.3677 13.2306 16.6654 14.9987 16.6654ZM14.9987 15.832C12.2362 15.832 9.9987 13.5945 9.9987 10.832C9.9987 8.06953 12.2362 5.83203 14.9987 5.83203C17.7612 5.83203 19.9987 8.06953 19.9987 10.832C19.9987 13.5945 17.7612 15.832 14.9987 15.832ZM22.4987 19.1654H23.332V23.332H16.6654V19.1654H17.4987V18.332C17.4987 17.669 17.7621 17.0331 18.2309 16.5643C18.6998 16.0954 19.3357 15.832 19.9987 15.832C20.6617 15.832 21.2976 16.0954 21.7665 16.5643C22.2353 17.0331 22.4987 17.669 22.4987 18.332V19.1654ZM20.832 19.1654V18.332C20.832 18.111 20.7442 17.8991 20.588 17.7428C20.4317 17.5865 20.2197 17.4987 19.9987 17.4987C19.7777 17.4987 19.5657 17.5865 19.4094 17.7428C19.2532 17.8991 19.1654 18.111 19.1654 18.332V19.1654H20.832Z" fill="white"/>
</svg>
