<svg width="20" height="20" viewBox="0 0 20 20" fill="none" xmlns="http://www.w3.org/2000/svg">
<path fill-rule="evenodd" clip-rule="evenodd" d="M6.17302 14.4668C9.0251 14.0501 10.9889 14.0859 13.8447 14.4814C14.0515 14.5113 14.2405 14.6151 14.3767 14.7736C14.513 14.9321 14.5873 15.1345 14.5859 15.3434C14.5859 15.5434 14.5172 15.7376 14.393 15.8893C14.1766 16.1537 13.9549 16.4138 13.728 16.6693H14.8284C14.8976 16.5868 14.9672 16.5026 15.0376 16.4172C15.2848 16.1141 15.4196 15.7349 15.4193 15.3439C15.4193 14.5001 14.8034 13.773 13.9589 13.6564C11.0355 13.2518 8.99219 13.213 6.0526 13.6426C5.19927 13.7672 4.58594 14.5055 4.58594 15.3551C4.58594 15.7322 4.70885 16.1051 4.94177 16.4072C5.01052 16.4964 5.07844 16.5839 5.14594 16.6697H6.21969C6.00861 16.417 5.80274 16.16 5.60219 15.8989C5.48301 15.7425 5.41871 15.5513 5.41927 15.3547C5.41927 14.9059 5.74177 14.5297 6.17302 14.4668ZM10.0026 10.4193C10.3309 10.4193 10.656 10.3546 10.9593 10.229C11.2626 10.1033 11.5382 9.91918 11.7704 9.68704C12.0025 9.45489 12.1867 9.17929 12.3123 8.87598C12.4379 8.57267 12.5026 8.24758 12.5026 7.91927C12.5026 7.59097 12.4379 7.26588 12.3123 6.96256C12.1867 6.65925 12.0025 6.38365 11.7704 6.1515C11.5382 5.91936 11.2626 5.73521 10.9593 5.60957C10.656 5.48394 10.3309 5.41927 10.0026 5.41927C9.33956 5.41927 8.70368 5.68266 8.23484 6.1515C7.766 6.62034 7.5026 7.25623 7.5026 7.91927C7.5026 8.58231 7.766 9.2182 8.23484 9.68704C8.70368 10.1559 9.33956 10.4193 10.0026 10.4193ZM10.0026 11.2526C10.8867 11.2526 11.7345 10.9014 12.3596 10.2763C12.9847 9.65117 13.3359 8.80333 13.3359 7.91927C13.3359 7.03522 12.9847 6.18737 12.3596 5.56225C11.7345 4.93713 10.8867 4.58594 10.0026 4.58594C9.11855 4.58594 8.2707 4.93713 7.64558 5.56225C7.02046 6.18737 6.66927 7.03522 6.66927 7.91927C6.66927 8.80333 7.02046 9.65117 7.64558 10.2763C8.2707 10.9014 9.11855 11.2526 10.0026 11.2526Z" fill="#E0E0E0"/>
<path fill-rule="evenodd" clip-rule="evenodd" d="M10.0013 17.5013C14.1434 17.5013 17.5013 14.1434 17.5013 10.0013C17.5013 5.85922 14.1434 2.5013 10.0013 2.5013C5.85922 2.5013 2.5013 5.85922 2.5013 10.0013C2.5013 14.1434 5.85922 17.5013 10.0013 17.5013ZM10.0013 18.3346C14.6038 18.3346 18.3346 14.6038 18.3346 10.0013C18.3346 5.3988 14.6038 1.66797 10.0013 1.66797C5.3988 1.66797 1.66797 5.3988 1.66797 10.0013C1.66797 14.6038 5.3988 18.3346 10.0013 18.3346Z" fill="#E0E0E0"/>
</svg>
