<svg width="24" height="25" viewBox="0 0 24 25" fill="none" xmlns="http://www.w3.org/2000/svg">
<path d="M8 9.56641H16M8 13.5664H14M10.99 19.7724L8 21.5664L8 18.5664H6C5.20435 18.5664 4.44129 18.2503 3.87868 17.6877C3.31607 17.1251 3 16.3621 3 15.5664L3 7.56641C3 6.77076 3.31607 6.0077 3.87868 5.44509C4.44129 4.88248 5.20435 4.56641 6 4.56641L18 4.56641C18.7956 4.56641 19.5587 4.88248 20.1213 5.44509C20.6839 6.0077 21 6.77076 21 7.56641V13.5664M15 19.5664L17 21.5664L21 17.5664" stroke="#44566C" stroke-width="2" stroke-linecap="round" stroke-linejoin="round"/>
</svg>
