<svg width="18" height="19" viewBox="0 0 18 19" fill="none" xmlns="http://www.w3.org/2000/svg">
<path d="M14.25 2.75H13.5C12.6716 2.75 12 3.42157 12 4.25V14.75C12 15.5784 12.6716 16.25 13.5 16.25H14.25C15.0784 16.25 15.75 15.5784 15.75 14.75V4.25C15.75 3.42157 15.0784 2.75 14.25 2.75Z" fill="white"/>
<path d="M9.375 7.25H8.625C7.79657 7.25 7.125 7.92157 7.125 8.75V14.75C7.125 15.5784 7.79657 16.25 8.625 16.25H9.375C10.2034 16.25 10.875 15.5784 10.875 14.75V8.75C10.875 7.92157 10.2034 7.25 9.375 7.25Z" fill="white"/>
<path d="M4.5 12.5H3.75C2.92157 12.5 2.25 13.1716 2.25 14V14.75C2.25 15.5784 2.92157 16.25 3.75 16.25H4.5C5.32843 16.25 6 15.5784 6 14.75V14C6 13.1716 5.32843 12.5 4.5 12.5Z" fill="white"/>
</svg>
