<svg width="32" height="31" viewBox="0 0 32 31" fill="none" xmlns="http://www.w3.org/2000/svg">
<rect x="0.441406" width="30.981" height="30.981" rx="15.4905" fill="#33357D"/>
<g clip-path="url(#clip0_724_161)">
<path d="M16.9922 8.55054C17.2423 8.30058 17.5813 8.16016 17.9349 8.16016C18.2884 8.16016 18.6275 8.30058 18.8776 8.55054L24.8776 14.5505C25.1275 14.8006 25.2679 15.1397 25.2679 15.4932C25.2679 15.8468 25.1275 16.1858 24.8776 16.4359L18.8776 22.4359C18.6261 22.6787 18.2893 22.8131 17.9397 22.8101C17.5901 22.8071 17.2557 22.6668 17.0085 22.4196C16.7613 22.1724 16.621 21.838 16.618 21.4884C16.615 21.1388 16.7494 20.802 16.9922 20.5505L20.6016 16.8265H7.9349C7.58127 16.8265 7.24214 16.6861 6.99209 16.436C6.74204 16.186 6.60156 15.8468 6.60156 15.4932C6.60156 15.1396 6.74204 14.8004 6.99209 14.5504C7.24214 14.3003 7.58127 14.1599 7.9349 14.1599H20.6016L16.9922 10.4359C16.7423 10.1858 16.6018 9.84676 16.6018 9.4932C16.6018 9.13965 16.7423 8.80058 16.9922 8.55054Z" fill="white"/>
</g>
<defs>
<clipPath id="clip0_724_161">
<rect width="20" height="20" fill="white" transform="translate(5.93359 5.49219)"/>
</clipPath>
</defs>
</svg>
