<svg width="25" height="25" viewBox="0 0 25 25" fill="none" xmlns="http://www.w3.org/2000/svg">
<path d="M23.8603 22.0157L18.4237 16.5792C19.6858 14.9288 20.4624 12.8901 20.4624 10.6573C20.4624 5.31785 16.0938 0.949219 10.7544 0.949219C5.41493 0.949219 0.949219 5.31785 0.949219 10.6573C0.949219 15.9967 5.31785 20.3654 10.6573 20.3654C12.8901 20.3654 15.0259 19.5887 16.6763 18.2296L22.1128 23.6661C22.307 23.8603 22.6953 24.0544 22.9865 24.0544C23.2778 24.0544 23.569 23.9573 23.8603 23.6661C24.3457 23.2778 24.3457 22.5011 23.8603 22.0157ZM3.37624 10.6573C3.37624 6.67698 6.67698 3.37624 10.6573 3.37624C14.6376 3.37624 17.9383 6.67698 17.9383 10.6573C17.9383 14.6376 14.6376 17.9383 10.6573 17.9383C6.67698 17.9383 3.37624 14.7347 3.37624 10.6573Z" fill="#2E2E48"/>
</svg>
