<svg width="26" height="25" viewBox="0 0 26 25" fill="none" xmlns="http://www.w3.org/2000/svg">
<rect x="0.0742188" width="25" height="25" rx="12.5" fill="#FF4159"/>
<path d="M9.1714 16.5728C8.69331 16.5728 8.26372 16.4896 7.88264 16.3233C7.50848 16.1501 7.21401 15.9145 6.99922 15.6166C6.78442 15.3117 6.67356 14.9618 6.66663 14.5669H7.67477C7.70942 14.9064 7.848 15.1939 8.0905 15.4295C8.33994 15.6581 8.70024 15.7725 9.1714 15.7725C9.62177 15.7725 9.97514 15.6616 10.2315 15.4399C10.4948 15.2112 10.6264 14.9202 10.6264 14.5669C10.6264 14.2897 10.5502 14.0645 10.3978 13.8913C10.2454 13.7181 10.0548 13.5864 9.82617 13.4964C9.59752 13.4063 9.28919 13.3093 8.90117 13.2053C8.42309 13.0806 8.03854 12.9559 7.74753 12.8312C7.46345 12.7065 7.21747 12.5125 7.00961 12.2492C6.80867 11.9789 6.70821 11.6187 6.70821 11.1683C6.70821 10.7733 6.80867 10.4234 7.00961 10.1186C7.21054 9.81369 7.49116 9.57811 7.85146 9.41182C8.21869 9.24553 8.63788 9.16239 9.10904 9.16239C9.78806 9.16239 10.3424 9.33214 10.772 9.67165C11.2085 10.0112 11.4544 10.4615 11.5099 11.0228H10.4706C10.4359 10.7456 10.2904 10.5031 10.034 10.2952C9.77767 10.0805 9.43816 9.97306 9.0155 9.97306C8.62056 9.97306 8.29837 10.077 8.04893 10.2849C7.79949 10.4858 7.67477 10.7699 7.67477 11.1371C7.67477 11.4004 7.74753 11.6152 7.89303 11.7815C8.04547 11.9478 8.22908 12.076 8.44387 12.166C8.6656 12.2492 8.97393 12.3462 9.36887 12.457C9.84696 12.5887 10.2315 12.7203 10.5225 12.852C10.8135 12.9767 11.063 13.1742 11.2708 13.4444C11.4787 13.7077 11.5826 14.068 11.5826 14.5253C11.5826 14.8787 11.4891 15.2112 11.302 15.523C11.1149 15.8348 10.8378 16.0877 10.4706 16.2817C10.1033 16.4757 9.67027 16.5728 9.1714 16.5728ZM16.9031 16.5L13.9202 13.195V16.5H12.9744V9.25592H13.9202V12.6129L16.9135 9.25592H18.1087L14.8244 12.8832L18.1399 16.5H16.9031Z" fill="white"/>
</svg>
