<svg width="18" height="19" viewBox="0 0 18 19" fill="none" xmlns="http://www.w3.org/2000/svg">
<path d="M8.25 14H9.75V16.25H8.25V14ZM12 16.25V17.75H6V16.25H12ZM15 14H3C2.40345 13.9994 1.8315 13.7622 1.40967 13.3403C0.98784 12.9185 0.750596 12.3466 0.75 11.75V3.5C0.750596 2.90345 0.98784 2.3315 1.40967 1.90967C1.8315 1.48784 2.40345 1.2506 3 1.25H15C15.5966 1.2506 16.1685 1.48784 16.5903 1.90967C17.0122 2.3315 17.2494 2.90345 17.25 3.5V11.75C17.2494 12.3466 17.0122 12.9185 16.5903 13.3403C16.1685 13.7622 15.5966 13.9994 15 14ZM3 2.75C2.80109 2.75 2.61032 2.82902 2.46967 2.96967C2.32902 3.11032 2.25 3.30109 2.25 3.5V11.75C2.25 11.9489 2.32902 12.1397 2.46967 12.2803C2.61032 12.421 2.80109 12.5 3 12.5H15C15.1989 12.5 15.3897 12.421 15.5303 12.2803C15.671 12.1397 15.75 11.9489 15.75 11.75V3.5C15.75 3.30109 15.671 3.11032 15.5303 2.96967C15.3897 2.82902 15.1989 2.75 15 2.75H3Z" fill="white"/>
<path d="M12 11.75L10.5645 6.965L9.75 10.25L8.76825 8H8.52L7.5 11L6.63225 7.94975L6.23175 8.75H3.75V8H5.76825L6.75 5.75L7.551 8.53475L7.98 7.25H9.23175L9.597 7.97975L10.5 3.5L12 9.5L12.48 8H14.25V8.75H13.02L12 11.75Z" fill="white"/>
</svg>
